<svg xmlns="http://www.w3.org/2000/svg" width="32" height="32" viewBox="0 0 24 24"><path fill="#ffffffa4" d="M12 16q1.875 0 3.188-1.312T16.5 11.5q0-1.875-1.312-3.187T12 7q-1.875 0-3.187 1.313T7.5 11.5q0 1.875 1.313 3.188T12 16Zm0-1.8q-1.125 0-1.912-.788T9.3 11.5q0-1.125.788-1.912T12 8.8q1.125 0 1.913.788T14.7 11.5q0 1.125-.787 1.913T12 14.2Zm0 4.8q-3.35 0-6.113-1.8t-4.362-4.75q-.125-.225-.187-.462t-.063-.488q0-.25.063-.488t.187-.462q1.6-2.95 4.363-4.75T12 4q3.35 0 6.113 1.8t4.362 4.75q.125.225.188.463t.062.487q0 .25-.062.488t-.188.462q-1.6 2.95-4.362 4.75T12 19Z"/></svg>